<svg width="48" height="48" viewBox="0 0 48 48" fill="none" xmlns="http://www.w3.org/2000/svg">
<rect width="48" height="48" rx="6" fill="#7510F7"/>
<path d="M29.5396 39.8535C29.8283 40.1423 30.1306 40.3887 30.4464 40.5927C30.7332 40.7679 31.0485 40.9435 31.3922 41.1195C31.5925 41.2081 31.9045 41.1848 32.3282 41.0499C32.8087 40.9158 33.3028 40.7394 33.8103 40.5206C34.3458 40.2739 34.8524 39.9984 35.3301 39.6939C35.8078 39.3894 36.1724 39.1115 36.4238 38.8601C37.4295 37.8544 37.9364 36.7411 37.9446 35.5201C37.9807 34.2712 37.8049 33.0898 37.4173 31.9759C37.0287 30.8051 36.5433 29.7889 35.9611 28.9274C35.3788 28.0658 34.9722 27.5195 34.7412 27.2885C33.4707 26.0179 31.9049 24.9271 30.044 24.0159C28.1541 23.0759 26.2662 22.2494 24.3801 21.5366C22.4931 20.767 20.7491 20.0566 19.148 19.4053C17.518 18.7252 16.3277 18.0097 15.5769 17.2589C14.3641 16.0461 13.7585 14.6304 13.7601 13.0117C13.7328 11.3642 14.6121 9.58971 16.3981 7.68824C17.1514 6.87719 17.5392 6.28725 17.5615 5.91845C17.6117 5.52171 17.348 5.03458 16.7705 4.45706C16.5395 4.22605 16.2121 4.17803 15.7884 4.313C15.3358 4.41909 14.8846 4.6104 14.4348 4.88693C13.9561 5.13458 13.5068 5.43951 13.0869 5.80173C12.666 6.10713 12.3577 6.35761 12.1622 6.55315C11.2683 7.44707 10.7488 8.65958 10.6038 10.1907C10.4578 11.6649 10.5256 13.1853 10.8071 14.7519C11.1166 16.2905 11.5378 17.7174 12.0707 19.0325C12.6027 20.2908 13.1142 21.1654 13.6051 21.6563C14.1537 22.205 14.9436 22.7434 15.9747 23.2717C17.0337 23.772 18.2063 24.2742 19.4926 24.7782C20.75 25.2534 22.0786 25.744 23.4785 26.25C24.8774 26.6991 26.22 27.1757 27.5062 27.6798C28.7636 28.155 29.9078 28.6567 30.9389 29.1849C31.9979 29.6852 32.8162 30.2242 33.3937 30.8017C34.029 31.437 34.3835 32.2664 34.4573 33.2899C34.5301 34.2566 34.1894 35.1171 33.4351 35.8714C32.6529 36.6536 31.8665 37.1801 31.0759 37.451C30.2563 37.693 29.651 38.0095 29.2599 38.4006C29.1203 38.5403 29.0528 38.7522 29.0575 39.0362C29.0612 39.2635 29.2219 39.5359 29.5396 39.8535Z" fill="white"/>
<path d="M18.181 14.0273C17.6515 13.2283 17.6427 12.1924 18.1585 11.3845L18.9727 10.1091C19.5021 9.27997 20.6603 9.14831 21.3622 9.83746V9.83746C21.4394 9.91323 21.5084 9.99687 21.5681 10.087L22.3068 11.2018C23.0695 12.3528 22.7546 13.9041 21.6037 14.6667L21.54 14.709C20.4242 15.4483 18.9203 15.1431 18.181 14.0273V14.0273Z" fill="white"/>
</svg>
